<svg width="251" height="112" viewBox="0 0 251 112" fill="none" xmlns="http://www.w3.org/2000/svg">
<path d="M0.117188 77.5299V1.0162H8.52005V77.5299H0.117188Z" fill="white"/>
<path d="M42.5504 45.7934V1.01649H51.0733V77.5302H45.2513L28.2055 32.2769V77.5897H19.8026V1.01649H25.6847L42.5504 45.7934Z" fill="white"/>
<path d="M78.0239 8.57854V77.5302H69.621V8.57854H58.0971V1.01649H89.6078V8.57854H78.0239Z" fill="white"/>
<path d="M96.6292 77.5302V1.01649H127.9V8.57854H105.032V36.3259H123.458V44.0666H105.032V69.4918H127.9V77.5302H96.6292Z" fill="white"/>
<path d="M153.347 40.8513L168.892 77.5898H159.409L144.704 42.3994L144.584 77.4111L136.301 77.7088V1.01649H153.647C158.448 1.01649 162.049 4.23185 163.79 6.91132C165.051 8.69763 165.891 11.0198 166.491 12.8061C167.331 15.4856 167.571 18.3437 167.571 20.9636C167.571 26.4417 165.771 34.8373 159.649 38.9459C158.028 40.0176 156.528 40.5535 155.027 40.6726C154.487 40.7322 153.947 40.7322 153.347 40.8513ZM144.644 33.2892H153.286C154.787 33.2892 155.807 32.396 157.068 30.5502C158.388 28.7043 159.048 25.0722 159.048 22.6309V19.2369C159.048 15.6642 158.028 11.0794 155.207 9.23353C154.547 8.81672 153.887 8.57854 153.347 8.57854H144.704V33.2892H144.644Z" fill="white"/>
<path d="M200.103 45.7931V1.0162H208.626V77.5299H202.804L185.758 32.2171V77.5299H177.355V1.0162H183.237L200.103 45.7931Z" fill="white"/>
<path d="M250.4 58.8292C250.4 61.3301 250.04 63.7118 249.32 66.1531C248.719 68.2967 247.519 71.2739 245.538 73.7747C243.678 76.1565 240.677 78.3596 236.475 78.3596H233.054C228.853 78.3596 225.852 76.216 223.931 73.7747C221.95 71.3334 220.75 68.3562 220.09 66.1531C219.429 63.7118 219.129 61.2705 219.129 58.8292V19.6494C219.129 17.2081 219.429 14.7073 220.09 12.3256C220.75 10.1224 221.89 7.14525 223.931 4.70396C225.912 2.26266 228.853 0 233.054 0H236.475C240.617 0 243.678 2.20312 245.538 4.70396C247.519 7.14525 248.719 10.1224 249.32 12.3256C250.04 14.7668 250.4 17.2081 250.4 19.6494V58.8292ZM241.397 13.6951C240.797 11.0156 238.276 8.09795 236.295 8.09795H233.234C232.754 8.09795 232.094 8.21704 231.494 8.5743C228.493 10.4202 227.472 14.4691 227.472 18.1013V60.556C227.472 64.1286 228.553 68.1776 231.374 69.9044C232.334 70.4998 232.754 70.6189 233.174 70.6189H236.235C236.655 70.6189 237.015 70.4998 237.916 69.9044C240.737 68.1776 241.937 64.0691 241.937 60.556V18.1013C241.997 16.6127 241.757 15.1241 241.397 13.6951Z" fill="white"/>
<path d="M7.29669 107.38L6.89024 107.829V99.1111H8.68422V107.829L8.24974 107.38H12.7207L12.2862 107.829V99.1111H14.0802V108.922H1.48027V99.1111H3.27425V107.829L2.85379 107.38H7.29669ZM22.0084 108.922L19.3034 105.334L20.733 104.451L24.0687 108.922H22.0084ZM16.6405 108.922V101.438H18.3924V108.922H16.6405ZM17.8739 105.923V104.465H20.4107V105.923H17.8739ZM20.9012 105.39L19.2614 105.194L22.0084 101.438H23.8865L20.9012 105.39ZM28.3937 109.02C27.6275 109.02 26.9454 108.856 26.3474 108.529C25.7494 108.193 25.2776 107.735 24.9319 107.156C24.5861 106.577 24.4133 105.918 24.4133 105.18C24.4133 104.432 24.5861 103.774 24.9319 103.204C25.2776 102.624 25.7494 102.171 26.3474 101.844C26.9454 101.517 27.6275 101.354 28.3937 101.354C29.1692 101.354 29.8559 101.517 30.4539 101.844C31.0613 102.171 31.5331 102.62 31.8695 103.19C32.2152 103.76 32.3881 104.423 32.3881 105.18C32.3881 105.918 32.2152 106.577 31.8695 107.156C31.5331 107.735 31.0613 108.193 30.4539 108.529C29.8559 108.856 29.1692 109.02 28.3937 109.02ZM28.3937 107.52C28.8235 107.52 29.2066 107.427 29.5429 107.24C29.8793 107.053 30.1409 106.782 30.3278 106.427C30.524 106.072 30.6221 105.656 30.6221 105.18C30.6221 104.694 30.524 104.278 30.3278 103.932C30.1409 103.577 29.8793 103.306 29.5429 103.119C29.2066 102.933 28.8281 102.839 28.4077 102.839C27.9779 102.839 27.5948 102.933 27.2584 103.119C26.9314 103.306 26.6698 103.577 26.4736 103.932C26.2773 104.278 26.1792 104.694 26.1792 105.18C26.1792 105.656 26.2773 106.072 26.4736 106.427C26.6698 106.782 26.9314 107.053 27.2584 107.24C27.5948 107.427 27.9732 107.52 28.3937 107.52ZM32.9434 108.908L33.0275 107.436C33.0929 107.446 33.1537 107.455 33.2097 107.464C33.2658 107.474 33.3172 107.478 33.3639 107.478C33.6535 107.478 33.8778 107.39 34.0366 107.212C34.1955 107.034 34.3123 106.796 34.387 106.497C34.4711 106.189 34.5272 105.848 34.5552 105.474C34.5926 105.091 34.6206 104.708 34.6393 104.325L34.7654 101.438H40.8201V108.922H39.0682V102.447L39.4746 102.923H35.9147L36.2931 102.433L36.195 104.409C36.167 105.072 36.1109 105.689 36.0268 106.259C35.9521 106.82 35.8306 107.31 35.6624 107.731C35.5036 108.151 35.2793 108.478 34.9897 108.712C34.7094 108.945 34.3497 109.062 33.9105 109.062C33.7703 109.062 33.6162 109.048 33.448 109.02C33.2891 108.992 33.121 108.955 32.9434 108.908ZM47.7205 108.922V107.408L47.6224 107.086V104.437C47.6224 103.923 47.4683 103.526 47.1599 103.246C46.8516 102.956 46.3844 102.811 45.7584 102.811C45.3379 102.811 44.9221 102.877 44.511 103.007C44.1092 103.138 43.7682 103.32 43.4879 103.554L42.8011 102.279C43.2029 101.97 43.6794 101.741 44.2307 101.592C44.7913 101.433 45.3706 101.354 45.9686 101.354C47.0525 101.354 47.8887 101.615 48.4774 102.138C49.0754 102.652 49.3744 103.451 49.3744 104.535V108.922H47.7205ZM45.3659 109.02C44.8053 109.02 44.3148 108.927 43.8943 108.74C43.4739 108.543 43.1468 108.277 42.9132 107.941C42.689 107.595 42.5769 107.207 42.5769 106.778C42.5769 106.357 42.675 105.979 42.8712 105.642C43.0768 105.306 43.4085 105.04 43.8663 104.843C44.3241 104.647 44.9315 104.549 45.6883 104.549H47.8607V105.712H45.8144C45.2164 105.712 44.8147 105.81 44.6091 106.007C44.4035 106.194 44.3008 106.427 44.3008 106.707C44.3008 107.025 44.4269 107.277 44.6792 107.464C44.9315 107.651 45.2819 107.745 45.7303 107.745C46.1602 107.745 46.5432 107.646 46.8796 107.45C47.2253 107.254 47.4729 106.964 47.6224 106.581L47.9168 107.632C47.7486 108.072 47.4449 108.413 47.0058 108.656C46.5759 108.899 46.0293 109.02 45.3659 109.02ZM60.1249 109.062C59.3774 109.062 58.6813 108.941 58.0366 108.698C57.4012 108.445 56.8453 108.095 56.3687 107.646C55.9016 107.189 55.5371 106.651 55.2755 106.035C55.0139 105.418 54.8831 104.745 54.8831 104.016C54.8831 103.288 55.0139 102.615 55.2755 101.998C55.5371 101.382 55.9062 100.849 56.3827 100.4C56.8593 99.9426 57.4152 99.5923 58.0506 99.3493C58.686 99.097 59.3821 98.9709 60.1389 98.9709C60.9424 98.9709 61.6759 99.1111 62.3393 99.3914C63.0027 99.6623 63.5633 100.069 64.0212 100.611L62.8439 101.718C62.4888 101.335 62.0917 101.05 61.6526 100.863C61.2134 100.667 60.7369 100.569 60.223 100.569C59.7091 100.569 59.2372 100.653 58.8074 100.821C58.387 100.989 58.0179 101.227 57.7002 101.536C57.3919 101.844 57.1489 102.208 56.9714 102.629C56.8032 103.049 56.7191 103.512 56.7191 104.016C56.7191 104.521 56.8032 104.984 56.9714 105.404C57.1489 105.824 57.3919 106.189 57.7002 106.497C58.0179 106.806 58.387 107.044 58.8074 107.212C59.2372 107.38 59.7091 107.464 60.223 107.464C60.7369 107.464 61.2134 107.371 61.6526 107.184C62.0917 106.988 62.4888 106.693 62.8439 106.301L64.0212 107.422C63.5633 107.955 63.0027 108.361 62.3393 108.642C61.6759 108.922 60.9378 109.062 60.1249 109.062ZM68.5786 109.02C67.8124 109.02 67.1303 108.856 66.5323 108.529C65.9344 108.193 65.4625 107.735 65.1168 107.156C64.7711 106.577 64.5982 105.918 64.5982 105.18C64.5982 104.432 64.7711 103.774 65.1168 103.204C65.4625 102.624 65.9344 102.171 66.5323 101.844C67.1303 101.517 67.8124 101.354 68.5786 101.354C69.3541 101.354 70.0409 101.517 70.6389 101.844C71.2462 102.171 71.7181 102.62 72.0544 103.19C72.4002 103.76 72.573 104.423 72.573 105.18C72.573 105.918 72.4002 106.577 72.0544 107.156C71.7181 107.735 71.2462 108.193 70.6389 108.529C70.0409 108.856 69.3541 109.02 68.5786 109.02ZM68.5786 107.52C69.0084 107.52 69.3915 107.427 69.7279 107.24C70.0642 107.053 70.3259 106.782 70.5127 106.427C70.709 106.072 70.8071 105.656 70.8071 105.18C70.8071 104.694 70.709 104.278 70.5127 103.932C70.3259 103.577 70.0642 103.306 69.7279 103.119C69.3915 102.933 69.0131 102.839 68.5926 102.839C68.1628 102.839 67.7797 102.933 67.4434 103.119C67.1163 103.306 66.8547 103.577 66.6585 103.932C66.4623 104.278 66.3642 104.694 66.3642 105.18C66.3642 105.656 66.4623 106.072 66.6585 106.427C66.8547 106.782 67.1163 107.053 67.4434 107.24C67.7797 107.427 68.1581 107.52 68.5786 107.52ZM74.3037 108.922V101.438H77.9617C78.8681 101.438 79.5782 101.606 80.0921 101.942C80.6153 102.279 80.8769 102.755 80.8769 103.372C80.8769 103.979 80.634 104.456 80.1481 104.801C79.6623 105.138 79.0176 105.306 78.214 105.306L78.4242 104.871C79.3306 104.871 80.0033 105.04 80.4425 105.376C80.891 105.703 81.1152 106.184 81.1152 106.82C81.1152 107.483 80.8676 108.002 80.3724 108.375C79.8772 108.74 79.125 108.922 78.1159 108.922H74.3037ZM75.9715 107.646H77.9757C78.4523 107.646 78.812 107.572 79.0549 107.422C79.2979 107.263 79.4193 107.025 79.4193 106.707C79.4193 106.371 79.3072 106.123 79.083 105.965C78.8587 105.806 78.5083 105.726 78.0318 105.726H75.9715V107.646ZM75.9715 104.563H77.8076C78.2561 104.563 78.5924 104.484 78.8167 104.325C79.0503 104.157 79.1671 103.923 79.1671 103.624C79.1671 103.316 79.0503 103.087 78.8167 102.937C78.5924 102.788 78.2561 102.713 77.8076 102.713H75.9715V104.563ZM87.1298 109.02C86.5225 109.02 85.9665 108.88 85.462 108.6C84.9668 108.319 84.5696 107.899 84.2707 107.338C83.981 106.768 83.8362 106.049 83.8362 105.18C83.8362 104.301 83.9763 103.582 84.2566 103.021C84.5463 102.461 84.9387 102.045 85.4339 101.774C85.9291 101.494 86.4944 101.354 87.1298 101.354C87.868 101.354 88.5173 101.512 89.078 101.83C89.6479 102.148 90.0964 102.592 90.4234 103.162C90.7598 103.731 90.928 104.404 90.928 105.18C90.928 105.955 90.7598 106.633 90.4234 107.212C90.0964 107.782 89.6479 108.226 89.078 108.543C88.5173 108.861 87.868 109.02 87.1298 109.02ZM82.9812 111.641V101.438H84.6491V103.204L84.593 105.194L84.7332 107.184V111.641H82.9812ZM86.9336 107.52C87.3541 107.52 87.7278 107.427 88.0548 107.24C88.3912 107.053 88.6575 106.782 88.8537 106.427C89.0499 106.072 89.148 105.656 89.148 105.18C89.148 104.694 89.0499 104.278 88.8537 103.932C88.6575 103.577 88.3912 103.306 88.0548 103.119C87.7278 102.933 87.3541 102.839 86.9336 102.839C86.5131 102.839 86.1347 102.933 85.7983 103.119C85.462 103.306 85.1957 103.577 84.9995 103.932C84.8032 104.278 84.7051 104.694 84.7051 105.18C84.7051 105.656 84.8032 106.072 84.9995 106.427C85.1957 106.782 85.462 107.053 85.7983 107.24C86.1347 107.427 86.5131 107.52 86.9336 107.52ZM96.1615 109.02C95.3299 109.02 94.6011 108.856 93.975 108.529C93.3584 108.193 92.8772 107.735 92.5315 107.156C92.1951 106.577 92.0269 105.918 92.0269 105.18C92.0269 104.432 92.1904 103.774 92.5174 103.204C92.8538 102.624 93.3116 102.171 93.891 101.844C94.4796 101.517 95.1477 101.354 95.8952 101.354C96.624 101.354 97.2733 101.512 97.8433 101.83C98.4133 102.148 98.8618 102.596 99.1888 103.176C99.5158 103.755 99.6793 104.437 99.6793 105.222C99.6793 105.297 99.6747 105.381 99.6653 105.474C99.6653 105.568 99.6606 105.656 99.6513 105.74H93.4144V104.577H98.7263L98.0395 104.941C98.0489 104.512 97.9601 104.133 97.7732 103.806C97.5864 103.479 97.3294 103.222 97.0024 103.035C96.6847 102.849 96.3156 102.755 95.8952 102.755C95.4654 102.755 95.0869 102.849 94.7599 103.035C94.4422 103.222 94.1899 103.484 94.0031 103.82C93.8255 104.147 93.7368 104.535 93.7368 104.984V105.264C93.7368 105.712 93.8396 106.109 94.0451 106.455C94.2507 106.801 94.5403 107.067 94.9141 107.254C95.2878 107.441 95.7176 107.534 96.2035 107.534C96.624 107.534 97.0024 107.469 97.3388 107.338C97.6751 107.207 97.9741 107.002 98.2357 106.721L99.1748 107.801C98.8384 108.193 98.4133 108.497 97.8994 108.712C97.3948 108.917 96.8155 109.02 96.1615 109.02ZM101.596 108.922V101.438H103.432L106.445 106.749H105.716L108.884 101.438H110.523L110.537 108.922H108.954V103.316L109.234 103.498L106.431 108.137H105.674L102.857 103.372L103.193 103.288V108.922H101.596ZM116.377 109.02C115.546 109.02 114.817 108.856 114.191 108.529C113.574 108.193 113.093 107.735 112.747 107.156C112.411 106.577 112.243 105.918 112.243 105.18C112.243 104.432 112.406 103.774 112.733 103.204C113.069 102.624 113.527 102.171 114.107 101.844C114.695 101.517 115.363 101.354 116.111 101.354C116.84 101.354 117.489 101.512 118.059 101.83C118.629 102.148 119.077 102.596 119.404 103.176C119.731 103.755 119.895 104.437 119.895 105.222C119.895 105.297 119.89 105.381 119.881 105.474C119.881 105.568 119.876 105.656 119.867 105.74H113.63V104.577H118.942L118.255 104.941C118.265 104.512 118.176 104.133 117.989 103.806C117.802 103.479 117.545 103.222 117.218 103.035C116.9 102.849 116.531 102.755 116.111 102.755C115.681 102.755 115.303 102.849 114.976 103.035C114.658 103.222 114.406 103.484 114.219 103.82C114.041 104.147 113.952 104.535 113.952 104.984V105.264C113.952 105.712 114.055 106.109 114.261 106.455C114.466 106.801 114.756 107.067 115.13 107.254C115.503 107.441 115.933 107.534 116.419 107.534C116.84 107.534 117.218 107.469 117.554 107.338C117.891 107.207 118.19 107.002 118.451 106.721L119.39 107.801C119.054 108.193 118.629 108.497 118.115 108.712C117.61 108.917 117.031 109.02 116.377 109.02ZM121.811 108.922V101.438H123.563V104.479H127.333V101.438H129.085V108.922H127.333V105.965H123.563V108.922H121.811ZM131.433 108.922V101.438H133.185V104.479H136.955V101.438H138.707V108.922H136.955V105.965H133.185V108.922H131.433ZM148.609 108.922V101.438H150.361V108.922H148.609ZM144.699 103.904C145.661 103.904 146.39 104.119 146.885 104.549C147.39 104.979 147.642 105.586 147.642 106.371C147.642 107.184 147.362 107.819 146.801 108.277C146.25 108.726 145.465 108.945 144.447 108.936L141.055 108.922V101.438H142.807V103.89L144.699 103.904ZM144.293 107.646C144.806 107.656 145.199 107.548 145.47 107.324C145.741 107.1 145.876 106.773 145.876 106.343C145.876 105.913 145.741 105.605 145.47 105.418C145.208 105.222 144.816 105.119 144.293 105.11L142.807 105.096V107.632L144.293 107.646ZM151.609 108.922L154.903 104.633L154.875 105.572L151.735 101.438H153.683L155.884 104.381H155.141L157.355 101.438H159.248L156.08 105.572L156.094 104.633L159.374 108.922H157.397L155.085 105.796L155.814 105.895L153.543 108.922H151.609ZM164.711 108.922V99.1111H173.387V108.922H171.593V100.204L172.013 100.653H166.085L166.505 100.204V108.922H164.711ZM180.105 109.02C179.498 109.02 178.942 108.88 178.438 108.6C177.942 108.319 177.545 107.899 177.246 107.338C176.957 106.768 176.812 106.049 176.812 105.18C176.812 104.301 176.952 103.582 177.232 103.021C177.522 102.461 177.914 102.045 178.409 101.774C178.905 101.494 179.47 101.354 180.105 101.354C180.844 101.354 181.493 101.512 182.054 101.83C182.623 102.148 183.072 102.592 183.399 103.162C183.735 103.731 183.904 104.404 183.904 105.18C183.904 105.955 183.735 106.633 183.399 107.212C183.072 107.782 182.623 108.226 182.054 108.543C181.493 108.861 180.844 109.02 180.105 109.02ZM175.957 111.641V101.438H177.625V103.204L177.569 105.194L177.709 107.184V111.641H175.957ZM179.909 107.52C180.33 107.52 180.703 107.427 181.03 107.24C181.367 107.053 181.633 106.782 181.829 106.427C182.025 106.072 182.124 105.656 182.124 105.18C182.124 104.694 182.025 104.278 181.829 103.932C181.633 103.577 181.367 103.306 181.03 103.119C180.703 102.933 180.33 102.839 179.909 102.839C179.489 102.839 179.11 102.933 178.774 103.119C178.438 103.306 178.171 103.577 177.975 103.932C177.779 104.278 177.681 104.694 177.681 105.18C177.681 105.656 177.779 106.072 177.975 106.427C178.171 106.782 178.438 107.053 178.774 107.24C179.11 107.427 179.489 107.52 179.909 107.52ZM188.983 109.02C188.217 109.02 187.535 108.856 186.937 108.529C186.339 108.193 185.867 107.735 185.521 107.156C185.175 106.577 185.002 105.918 185.002 105.18C185.002 104.432 185.175 103.774 185.521 103.204C185.867 102.624 186.339 102.171 186.937 101.844C187.535 101.517 188.217 101.354 188.983 101.354C189.758 101.354 190.445 101.517 191.043 101.844C191.65 102.171 192.122 102.62 192.459 103.19C192.804 103.76 192.977 104.423 192.977 105.18C192.977 105.918 192.804 106.577 192.459 107.156C192.122 107.735 191.65 108.193 191.043 108.529C190.445 108.856 189.758 109.02 188.983 109.02ZM188.983 107.52C189.413 107.52 189.796 107.427 190.132 107.24C190.468 107.053 190.73 106.782 190.917 106.427C191.113 106.072 191.211 105.656 191.211 105.18C191.211 104.694 191.113 104.278 190.917 103.932C190.73 103.577 190.468 103.306 190.132 103.119C189.796 102.933 189.417 102.839 188.997 102.839C188.567 102.839 188.184 102.933 187.848 103.119C187.521 103.306 187.259 103.577 187.063 103.932C186.867 104.278 186.768 104.694 186.768 105.18C186.768 105.656 186.867 106.072 187.063 106.427C187.259 106.782 187.521 107.053 187.848 107.24C188.184 107.427 188.562 107.52 188.983 107.52ZM199.459 109.062C199.45 109.062 199.408 109.062 199.333 109.062C199.268 109.062 199.202 109.062 199.137 109.062C199.081 109.062 199.043 109.062 199.025 109.062C197.446 109.043 196.222 108.702 195.353 108.039C194.484 107.366 194.049 106.408 194.049 105.166C194.049 103.932 194.484 102.989 195.353 102.335C196.222 101.681 197.46 101.344 199.067 101.325C199.085 101.325 199.123 101.325 199.179 101.325C199.244 101.325 199.305 101.325 199.361 101.325C199.426 101.325 199.464 101.325 199.473 101.325C201.09 101.325 202.346 101.657 203.243 102.321C204.15 102.975 204.603 103.923 204.603 105.166C204.603 106.418 204.15 107.38 203.243 108.053C202.346 108.726 201.085 109.062 199.459 109.062ZM199.403 107.604C200.197 107.604 200.851 107.516 201.365 107.338C201.879 107.151 202.262 106.88 202.515 106.525C202.767 106.161 202.893 105.708 202.893 105.166C202.893 104.633 202.767 104.194 202.515 103.848C202.262 103.493 201.879 103.232 201.365 103.063C200.851 102.886 200.197 102.797 199.403 102.797C199.384 102.797 199.338 102.797 199.263 102.797C199.198 102.797 199.156 102.797 199.137 102.797C198.361 102.797 197.726 102.891 197.231 103.077C196.736 103.255 196.366 103.517 196.123 103.862C195.89 104.208 195.773 104.642 195.773 105.166C195.773 105.698 195.89 106.142 196.123 106.497C196.366 106.852 196.736 107.123 197.231 107.31C197.735 107.497 198.371 107.595 199.137 107.604C199.156 107.604 199.198 107.604 199.263 107.604C199.338 107.604 199.384 107.604 199.403 107.604ZM198.492 111.641V98.5224H200.146V111.641H198.492ZM209.791 109.02C208.959 109.02 208.23 108.856 207.604 108.529C206.988 108.193 206.506 107.735 206.161 107.156C205.824 106.577 205.656 105.918 205.656 105.18C205.656 104.432 205.82 103.774 206.147 103.204C206.483 102.624 206.941 102.171 207.52 101.844C208.109 101.517 208.777 101.354 209.524 101.354C210.253 101.354 210.903 101.512 211.473 101.83C212.042 102.148 212.491 102.596 212.818 103.176C213.145 103.755 213.309 104.437 213.309 105.222C213.309 105.297 213.304 105.381 213.295 105.474C213.295 105.568 213.29 105.656 213.28 105.74H207.044V104.577H212.355L211.669 104.941C211.678 104.512 211.589 104.133 211.402 103.806C211.216 103.479 210.959 103.222 210.632 103.035C210.314 102.849 209.945 102.755 209.524 102.755C209.095 102.755 208.716 102.849 208.389 103.035C208.071 103.222 207.819 103.484 207.632 103.82C207.455 104.147 207.366 104.535 207.366 104.984V105.264C207.366 105.712 207.469 106.109 207.674 106.455C207.88 106.801 208.17 107.067 208.543 107.254C208.917 107.441 209.347 107.534 209.833 107.534C210.253 107.534 210.632 107.469 210.968 107.338C211.304 107.207 211.603 107.002 211.865 106.721L212.804 107.801C212.468 108.193 212.042 108.497 211.529 108.712C211.024 108.917 210.445 109.02 209.791 109.02ZM218.63 109.02C217.846 109.02 217.145 108.856 216.528 108.529C215.921 108.193 215.444 107.735 215.099 107.156C214.753 106.577 214.58 105.918 214.58 105.18C214.58 104.432 214.753 103.774 215.099 103.204C215.444 102.624 215.921 102.171 216.528 101.844C217.145 101.517 217.846 101.354 218.63 101.354C219.359 101.354 219.999 101.503 220.551 101.802C221.111 102.092 221.536 102.521 221.826 103.091L220.48 103.876C220.256 103.521 219.981 103.26 219.654 103.091C219.336 102.923 218.99 102.839 218.616 102.839C218.187 102.839 217.799 102.933 217.453 103.119C217.107 103.306 216.836 103.577 216.64 103.932C216.444 104.278 216.346 104.694 216.346 105.18C216.346 105.666 216.444 106.086 216.64 106.441C216.836 106.787 217.107 107.053 217.453 107.24C217.799 107.427 218.187 107.52 218.616 107.52C218.99 107.52 219.336 107.436 219.654 107.268C219.981 107.1 220.256 106.838 220.48 106.483L221.826 107.268C221.536 107.829 221.111 108.263 220.551 108.571C219.999 108.87 219.359 109.02 218.63 109.02ZM226.665 109.02C225.88 109.02 225.179 108.856 224.562 108.529C223.955 108.193 223.479 107.735 223.133 107.156C222.787 106.577 222.614 105.918 222.614 105.18C222.614 104.432 222.787 103.774 223.133 103.204C223.479 102.624 223.955 102.171 224.562 101.844C225.179 101.517 225.88 101.354 226.665 101.354C227.394 101.354 228.034 101.503 228.585 101.802C229.145 102.092 229.571 102.521 229.86 103.091L228.515 103.876C228.29 103.521 228.015 103.26 227.688 103.091C227.37 102.923 227.024 102.839 226.651 102.839C226.221 102.839 225.833 102.933 225.487 103.119C225.142 103.306 224.871 103.577 224.675 103.932C224.478 104.278 224.38 104.694 224.38 105.18C224.38 105.666 224.478 106.086 224.675 106.441C224.871 106.787 225.142 107.053 225.487 107.24C225.833 107.427 226.221 107.52 226.651 107.52C227.024 107.52 227.37 107.436 227.688 107.268C228.015 107.1 228.29 106.838 228.515 106.483L229.86 107.268C229.571 107.829 229.145 108.263 228.585 108.571C228.034 108.87 227.394 109.02 226.665 109.02ZM231.403 108.922V101.438H233.155V106.371L237.289 101.438H238.887V108.922H237.135V103.988L233.014 108.922H231.403ZM241.244 108.922V101.438H242.996V106.371L247.13 101.438H248.728V108.922H246.976V103.988L242.855 108.922H241.244ZM244.874 100.555C244.126 100.555 243.551 100.382 243.15 100.036C242.748 99.681 242.542 99.1671 242.533 98.4944H243.696C243.706 98.8307 243.808 99.097 244.005 99.2933C244.21 99.4895 244.495 99.5876 244.86 99.5876C245.215 99.5876 245.495 99.4895 245.701 99.2933C245.915 99.097 246.028 98.8307 246.037 98.4944H247.228C247.219 99.1671 247.009 99.681 246.598 100.036C246.196 100.382 245.621 100.555 244.874 100.555Z" fill="white"/>
</svg>
